<svg fill="currentColor" viewBox="0 0 48 48" xmlns="http://www.w3.org/2000/svg" width="1em" height="1em"><path d="M8.64 38.54a9 9 0 0 1 0-12.73l4.77-4.77a1 1 0 0 0 0-1.41l-1.42-1.42a1 1 0 0 0-1.4 0L5.8 23a13 13 0 0 0 18.38 18.38l4.78-4.77a1 1 0 0 0 0-1.42l-1.42-1.41a1 1 0 0 0-1.41 0l-4.78 4.77a9 9 0 0 1-12.72 0ZM22.25 12.2l3.71-3.71a8.5 8.5 0 0 1 12.02 0l.7.7a8.5 8.5 0 0 1 0 12.03l-3.7 3.71a1 1 0 0 0 0 1.41l1.41 1.42a1 1 0 0 0 1.41 0l3.72-3.71a12.5 12.5 0 0 0 0-17.68l-.71-.7a12.5 12.5 0 0 0-17.68 0l-3.71 3.7a1 1 0 0 0 0 1.42l1.41 1.41a1 1 0 0 0 1.42 0Z"></path><path d="M15.7 28.64a1 1 0 0 0 0 1.42l1.42 1.41a1 1 0 0 0 1.42 0L30.9 19.1a1 1 0 0 0 0-1.42l-1.41-1.41a1 1 0 0 0-1.42 0L15.71 28.64Z"></path></svg>