<svg fill="currentColor" viewBox="0 0 48 48" xmlns="http://www.w3.org/2000/svg" width="1em" height="1em"><path fill-rule="evenodd" clip-rule="evenodd" d="M37.37 4.85a4.01 4.01 0 0 0-.99-.79 3 3 0 0 0-2.72 0c-.45.23-.81.6-1 .79a9 9 0 0 1-.04.05l-19.3 19.3c-1.64 1.63-2.53 2.52-3.35 3.47a36 36 0 0 0-4.32 6.16c-.6 1.1-1.14 2.24-2.11 4.33l-.3.6c-.4.75-.84 1.61-.8 2.43a2.5 2.5 0 0 0 2.37 2.36c.82.05 1.68-.4 2.44-.79l.59-.3c2.09-.97 3.23-1.5 4.33-2.11a36 36 0 0 0 6.16-4.32c.95-.82 1.84-1.71 3.47-3.34l19.3-19.3.05-.06a3 3 0 0 0 .78-3.71c-.22-.45-.6-.81-.78-1l-.02-.02-.03-.03-3.67-3.67a8.7 8.7 0 0 1-.06-.05ZM16.2 26.97 35.02 8.15l2.83 2.83L19.03 29.8c-1.7 1.7-2.5 2.5-3.33 3.21a32 32 0 0 1-7.65 4.93 32 32 0 0 1 4.93-7.65c.73-.82 1.51-1.61 3.22-3.32Z"></path><path d="M43 44H13.83a40 40 0 0 0 6-4H43a1 1 0 0 1 1 1v2a1 1 0 0 1-1 1Z"></path></svg>