<svg fill="currentColor" color="inherit" font-size="inherit" viewBox="0 0 48 48" xmlns="http://www.w3.org/2000/svg" width="1em" height="1em"><path d="M23.9 4.55c.1.21.1.49.1 1.05v2.1c0 .56 0 .84-.1 1.05a1 1 0 0 1-.45.44c-.21.11-.49.11-1.05.11h-5.6c-2.33 0-3.75 0-4.82.1a6.86 6.86 0 0 0-1.2.2 2.7 2.7 0 0 0-1.2 1.22c-.02.03-.03.08-.05.17-.05.19-.1.49-.14.99-.09 1.07-.09 2.5-.09 4.82v14.4c0 2.33 0 3.75.1 4.82a6.86 6.86 0 0 0 .2 1.2 2.7 2.7 0 0 0 1.22 1.2c.03.02.08.03.17.05.19.05.49.1.99.14 1.07.09 2.5.09 4.82.09h14.4c2.33 0 3.75 0 4.82-.1a6.87 6.87 0 0 0 1.2-.2 2.7 2.7 0 0 0 1.2-1.22c.02-.03.03-.08.05-.17.05-.19.1-.49.14-.99.09-1.07.09-2.5.09-4.82v-5.6c0-.56 0-.84.1-1.05a1 1 0 0 1 .45-.44c.21-.11.49-.11 1.05-.11h2.1c.56 0 .84 0 1.05.1a1 1 0 0 1 .44.45c.11.21.11.49.11 1.05v5.6c0 4.48 0 6.72-.87 8.43a8 8 0 0 1-3.5 3.5c-1.7.87-3.95.87-8.43.87H16.8c-4.48 0-6.72 0-8.43-.87a8 8 0 0 1-3.5-3.5C4 37.93 4 35.68 4 31.2V16.8c0-4.48 0-6.72.87-8.43a8 8 0 0 1 3.5-3.5C10.07 4 12.32 4 16.8 4h5.6c.56 0 .84 0 1.05.1a1 1 0 0 1 .44.45ZM39.2 4.56a1 1 0 0 1 1.4 0l2.84 2.83a1 1 0 0 1 0 1.42l-3 3-4.25-4.24 3-3Z"></path><path d="M21.1 22.66 34.06 9.7l4.24 4.24-12.97 12.98a10 10 0 0 1-5.44 2.8l-1.23.2a.5.5 0 0 1-.58-.58l.2-1.23a10 10 0 0 1 2.8-5.44Z"></path></svg>