<svg fill="currentColor" viewBox="0 0 72 72" xmlns="http://www.w3.org/2000/svg" width="1em" height="1em"><path d="M14.32 10.1c-.82 1.6-.82 3.7-.82 7.9v43.9c0 2.29 0 3.43.47 4.04.42.53 1.04.85 1.72.87.77.02 1.7-.66 3.54-2.01l15.35-11.26c.51-.37.77-.56 1.04-.63.25-.07.5-.07.76 0 .27.07.53.26 1.04.63L52.77 64.8c1.85 1.35 2.77 2.03 3.54 2 .68-.01 1.3-.33 1.72-.86.47-.6.47-1.75.47-4.04V18c0-4.2 0-6.3-.82-7.9a7.5 7.5 0 0 0-3.28-3.28C52.8 6 50.7 6 46.5 6h-21c-4.2 0-6.3 0-7.9.82a7.5 7.5 0 0 0-3.28 3.28ZM46.5 9c2.15 0 3.58 0 4.68.1 1.07.08 1.55.23 1.86.39a4.5 4.5 0 0 1 1.97 1.97c.16.3.31.8.4 1.86.09 1.1.09 2.53.09 4.68v45.07l-.95-.69-15.36-11.26-.1-.07A5.82 5.82 0 0 0 37.13 50a4.5 4.5 0 0 0-2.26 0c-.88.23-1.61.78-1.96 1.05l-.1.07-15.36 11.26-.95.7V18c0-2.15 0-3.58.1-4.68.08-1.07.23-1.55.39-1.86a4.5 4.5 0 0 1 1.97-1.97c.3-.16.8-.31 1.86-.4C21.92 9 23.35 9 25.5 9h21Z"></path></svg>