<svg fill="currentColor" font-size="66px" viewBox="0 0 72 72" xmlns="http://www.w3.org/2000/svg" width="1em" height="1em"><path d="M21 7.5h34.5v.02c.65.01 1.2.03 1.68.07 1.07.09 1.55.24 1.86.4a4.5 4.5 0 0 1 1.97 1.97c.16.3.31.8.4 1.86.09 1.1.09 2.53.09 4.68v38.75l-.97-.77-5.03-4.02v3.84l3.15 2.52c1.87 1.5 2.81 2.25 3.6 2.25.68 0 1.33-.31 1.76-.85.49-.61.49-1.81.49-4.21V16.5c0-4.2 0-6.3-.82-7.9a7.5 7.5 0 0 0-3.28-3.28c-1.6-.82-3.7-.82-7.9-.82h-21c-4.2 0-6.3 0-7.9.82A7.5 7.5 0 0 0 21 7.5Zm40.4 49.32.01-.01v.01Zm1.38-.66Z"></path><path d="M7.5 24c0-4.2 0-6.3.82-7.9a7.5 7.5 0 0 1 3.28-3.28c1.6-.82 3.7-.82 7.9-.82h21c4.2 0 6.3 0 7.9.82a7.5 7.5 0 0 1 3.28 3.28c.82 1.6.82 3.7.82 7.9v37.51c0 2.4 0 3.6-.5 4.21-.42.54-1.07.85-1.75.85-.79 0-1.73-.75-3.6-2.25L31.5 52.2c-.54-.43-.8-.64-1.1-.72a1.5 1.5 0 0 0-.8 0c-.3.08-.56.3-1.1.72L13.35 64.32c-1.87 1.5-2.81 2.25-3.6 2.25-.68 0-1.33-.31-1.76-.85-.49-.61-.49-1.81-.49-4.21V24Zm12-9c-2.15 0-3.58 0-4.68.1a4.93 4.93 0 0 0-1.86.4 4.5 4.5 0 0 0-1.97 1.96c-.16.3-.31.8-.4 1.86-.09 1.1-.09 2.53-.09 4.68v38.75l.97-.77 15.2-12.16c.23-.18.5-.4.77-.59a4.5 4.5 0 0 1 3.76-.65c.6.17 1.04.44 1.36.65.26.19.54.4.77.59l15.2 12.16.97.77V24c0-2.15 0-3.58-.1-4.68a4.93 4.93 0 0 0-.39-1.86 4.5 4.5 0 0 0-1.97-1.97c-.3-.16-.8-.31-1.86-.4-1.1-.09-2.53-.09-4.68-.09h-21Zm29.91 49.3Zm1.36-.64Zm-41.54 0Z"></path></svg>