<svg fill="currentColor" viewBox="0 0 48 48" xmlns="http://www.w3.org/2000/svg" width="1em" height="1em"><path d="M8.76 6.82C8 8.32 8 10.28 8 14.2v19.6c0 3.92 0 5.88.76 7.38a7 7 0 0 0 3.06 3.06c1.5.76 3.46.76 7.38.76h6.09a7 7 0 0 1-.29-2V29a7 7 0 0 1 7-7h7v-7.8c0-3.92 0-5.88-.76-7.38a7 7 0 0 0-3.06-3.06C33.68 3 31.72 3 27.8 3h-8.6c-3.92 0-5.88 0-7.38.76a7 7 0 0 0-3.06 3.06Zm5.29 2.45.03-.04c.4-.41.6-.62.83-.7a1 1 0 0 1 .63 0c.24.08.44.29.84.7l4.16 4.3 2.22-2.3a.58.58 0 0 1 1 .34L25 19.53a.81.81 0 0 1-.9.94l-7.72-1.3c-.47-.07-.66-.66-.32-1.02l2.22-2.29-4.23-4.37c-.38-.39-.57-.58-.64-.8a1 1 0 0 1 0-.61c.07-.23.26-.42.64-.81Z"></path><path d="M29 43a2.99 2.99 0 0 0 1.64 2.67c.64.33 1.48.33 3.16.33h5.4c1.68 0 2.52 0 3.16-.33a3 3 0 0 0 1.31-1.3c.33-.65.33-1.49.33-3.17V30.8c0-1.68 0-2.52-.33-3.16a3 3 0 0 0-1.3-1.31C41.71 26 40.87 26 39.2 26H32a3 3 0 0 0-3 3v14Z"></path></svg>