<svg width="24" data-e2e="" height="24" viewBox="0 0 48 48" fill="currentColor" xmlns="http://www.w3.org/2000/svg"><path fill-rule="evenodd" clip-rule="evenodd" d="M28.0781 7.17931C27.8285 6.68664 28.0244 6.08056 28.5358 5.87203C32.9356 4.07795 37.8765 5.08837 41.327 8.56047C46.2243 13.4886 46.2243 21.4734 41.327 26.4016L25.4186 42.4098C25.0432 42.7875 24.5326 43 24 43C23.4674 43 22.9568 42.7875 22.5814 42.4098L6.67302 26.4016C1.77566 21.4734 1.77566 13.4886 6.67302 8.56047C10.9346 4.27215 17.4319 3.76529 22.3657 7.54239C22.9025 7.95332 23.1954 8.6076 23.1443 9.28168L22.7627 14.3135L26.4527 16.5237C27.308 17.036 27.6554 18.1 27.2671 19.0183L25.2232 23.853L26.7562 26.8747C27.0061 27.3673 26.8093 27.9691 26.3168 28.219L24.5332 29.1238C24.0407 29.3737 23.4388 29.1769 23.189 28.6844L21.2358 24.8344C20.9694 24.3092 20.948 23.6933 21.1773 23.1508L22.9059 19.062L19.6473 17.1102C18.9976 16.721 18.6235 15.9983 18.6807 15.2432L19.0683 10.1318C15.8928 8.24443 12.1181 8.75584 9.51028 11.38C6.16324 14.7481 6.16324 20.2139 9.51028 23.582L24 38.1627L38.4897 23.582C41.8368 20.2139 41.8368 14.7481 38.4897 11.38C36.2471 9.1233 33.1639 8.44509 30.3515 9.45892C29.832 9.64621 29.2316 9.45607 28.982 8.96341L28.0781 7.17931Z"></path></svg>