<svg fill="currentColor" viewBox="0 0 48 48" xmlns="http://www.w3.org/2000/svg" width="1em" height="1em"><path d="M8.71 10.56c4.24-4.2 10.93-4.15 15.29.63 4.36-4.78 11.05-4.84 15.29-.63a10.82 10.82 0 0 1 2.82 10.55L39.5 18.5c.06-2.1-.71-4.21-2.32-5.81-3.06-3.03-7.92-3.03-11.17.75l-.03.04-.92.91a1.5 1.5 0 0 1-2.12 0l-.92-.91-.03-.04c-3.25-3.78-8.11-3.78-11.17-.75a7.82 7.82 0 0 0 0 11.12L24 36.89l1.95-1.94 2.12 2.12-3.01 3a1.5 1.5 0 0 1-2.12 0L8.71 25.93a10.82 10.82 0 0 1 0-15.38Zm33.14 21.3a16.64 16.64 0 0 0 2.25-2.68 4 4 0 0 0 .22-.41c.04-.09.18-.4.18-.77 0-.3-.09-.56-.12-.64a8.38 8.38 0 0 0-.68-1.32c-.43-.67-1.07-1.5-1.91-2.31a11.15 11.15 0 0 0-10.85-2.8l2.57 2.58.49-.01c2.5 0 4.4 1.14 5.71 2.4a9.87 9.87 0 0 1 1.63 2.02 13.67 13.67 0 0 1-1.6 1.8l2.11 2.13Zm-5.84.27c-.65.24-1.33.37-2.01.37-1.95 0-3.85-1.1-5.37-2.44a13.9 13.9 0 0 1-1.97-2.14l.17-.26a9.87 9.87 0 0 1 2.26-2.45L36 32.13Zm-9.06-9.06a12.74 12.74 0 0 0-3.17 3.89c-.06.13-.12.27-.16.4-.03.08-.12.34-.12.64 0 .37.14.68.18.76a9.6 9.6 0 0 0 .84 1.3c.51.66 1.23 1.47 2.12 2.25 1.74 1.54 4.34 3.19 7.36 3.19 1.57 0 3.02-.44 4.3-1.08l1.93 1.93a1 1 0 0 0 1.42 0l.7-.7a1 1 0 0 0 0-1.42L27.77 19.65a1 1 0 0 0-1.42 0l-.7.7a1 1 0 0 0 0 1.42l1.3 1.3Z"></path></svg>