<svg fill="currentColor" color="inherit" font-size="inherit" viewBox="0 0 48 48" xmlns="http://www.w3.org/2000/svg" width="1em" height="1em"><path d="M27.31 2.3c.7.4 1.1 1.16 1.06 1.97-.26 4.75-.12 9.08.62 12.42.36 1.65.83 2.92 1.39 3.87 1.28-4.09 3.35-7.57 6.39-9.61a2.11 2.11 0 0 1 2.28-.06c.7.43 1.1 1.23 1.02 2.06l-.01.05a12.25 12.25 0 0 0-.06.93c-.02.64-.03 1.54.02 2.55.11 2.1.49 4.36 1.37 5.92 2.62 4.62 1.74 10.43-.48 14.9-1.33 2.7-3.88 4.85-6.8 6.33a22.54 22.54 0 0 1-10 2.37c-9.18 0-15.7-4.65-17.91-9.9-1.47-3.47-1.43-7.44-.73-10.74.36-1.67.9-3.23 1.55-4.56a9.9 9.9 0 0 1 2.47-3.3 2.11 2.11 0 0 1 3.39 1.15 30.5 30.5 0 0 0 1.66 4.95c.45-9.18 3.5-16.68 10.55-21.26a2.11 2.11 0 0 1 2.22-.05Zm8.59 16.02c-.96 1.77-1.73 4-2.25 6.64a2.11 2.11 0 0 1-2.95 1.54c-3.35-1.5-5.03-5.07-5.87-8.88A42.8 42.8 0 0 1 24 8.84c-4.01 4.46-5.61 11.1-5.2 19.89a2.12 2.12 0 0 1-2.13 2.25 4.86 4.86 0 0 1-3.35-1.5c-.82-.8-1.49-1.81-2.04-2.86-.4-.73-.75-1.53-1.08-2.36-.21.62-.4 1.3-.56 2-.58 2.74-.54 5.75.48 8.17 1.42 3.35 6.17 7.28 14 7.28 2.86 0 5.73-.73 8.1-1.92 2.4-1.21 4.1-2.8 4.9-4.4 1.87-3.78 2.23-7.97.59-10.86a16.53 16.53 0 0 1-1.8-6.21Z"></path></svg>