<svg fill="currentColor" viewBox="0 0 48 48" xmlns="http://www.w3.org/2000/svg" width="1em" height="1em"><path d="M37.7 15v19.7l3.48-3.7a.7.7 0 0 1 .99-.03l1.46 1.37c.28.26.3.7.03.99l-6.26 6.66a2.3 2.3 0 0 1-3.34.01l-6.36-6.66a.7.7 0 0 1 .02-.99l1.45-1.38a.7.7 0 0 1 .99.02l4.14 4.34V15a4.3 4.3 0 0 0-4.3-4.3h-3.5a.7.7 0 0 1-.7-.7V8c0-.39.31-.7.7-.7H30a7.7 7.7 0 0 1 7.7 7.7ZM17.84 17.34 13.7 13v20a4.3 4.3 0 0 0 4.3 4.3h3.5c.39 0 .7.31.7.7v2a.7.7 0 0 1-.7.7H18a7.7 7.7 0 0 1-7.7-7.7V13.63l-3.48 3.7a.7.7 0 0 1-.99.03L4.37 16a.7.7 0 0 1-.03-.98l6.26-6.67a2.3 2.3 0 0 1 3.34-.01l6.36 6.66a.7.7 0 0 1-.02.99l-1.45 1.38a.7.7 0 0 1-.99-.02Z"></path></svg>