<svg viewBox="0 0 48 48" fill="currentColor" xmlns="http://www.w3.org/2000/svg" width="1em" height="1em"><path fill="#FACE15" d="M0 0h48v48H0z"></path><path d="M30.01 22.53v5.22h-3.46a.82.82 0 0 0-.62 1.35l4.56 5.32c.43.5 1.22.5 1.65 0l4.56-5.32a.82.82 0 0 0-.62-1.35h-3.13v-5.28c0-1.14 0-2.36-.07-3.1a5.68 5.68 0 0 0-.57-2.24 5.74 5.74 0 0 0-2.5-2.5c-.7-.36-1.45-.5-2.25-.57-.78-.06-.92-.06-2.07-.06H23.7a.79.79 0 0 0-.78.79v1.36c0 .43.35.78.78.78h1.73c1.22 0 1.25 0 1.89.06.62.05.93.14 1.15.25.53.27.96.7 1.23 1.22.1.18.2.53.25 1.15.05.64.06 1.7.06 2.92ZM17.89 21.2h3.46c.7 0 1.08-.82.63-1.35l-4.56-5.32a1.1 1.1 0 0 0-1.66 0l-4.56 5.32a.82.82 0 0 0 .62 1.35h3.13v5.28c0 1.14.01 2.37.07 3.1.07.84.21 1.54.57 2.24a5.74 5.74 0 0 0 2.5 2.5c.7.36 1.45.5 2.25.57.78.06.92.06 2.07.06h1.79c.43 0 .78-.35.78-.78V32.8a.79.79 0 0 0-.78-.78h-1.73c-1.22 0-1.25 0-1.89-.06a3.04 3.04 0 0 1-1.15-.25 2.8 2.8 0 0 1-1.22-1.22c-.11-.18-.2-.53-.26-1.15-.05-.64-.06-1.7-.06-2.92V21.2Z" fill="#fff"></path></svg>